<svg xmlns="http://www.w3.org/2000/svg" xmlns:xlink="http://www.w3.org/1999/xlink" id="svg" width="400" height="400" viewBox="0, 0, 400,400"><g id="svgg"><path id="path0" d="M10.800 0.780 C 10.800 1.209,11.115 1.744,11.500 1.968 C 12.125 2.332,12.104 2.377,11.300 2.388 C 10.671 2.396,10.400 2.641,10.400 3.200 C 10.400 3.799,10.133 4.000,9.338 4.000 C 8.297 4.000,8.291 3.984,9.009 3.191 C 10.021 2.072,9.190 1.123,8.078 2.129 C 7.670 2.498,7.193 2.800,7.017 2.800 C 6.639 2.800,1.200 8.441,1.200 8.833 C 1.200 9.730,2.450 10.079,3.208 9.393 C 3.974 8.699,4.000 8.704,4.000 9.538 C 4.000 10.133,3.753 10.400,3.200 10.400 C 2.641 10.400,2.396 10.671,2.388 11.300 C 2.377 12.104,2.332 12.125,1.968 11.500 C 1.265 10.293,0.000 10.614,0.000 12.000 C 0.000 12.660,0.180 13.200,0.400 13.200 C 0.620 13.200,0.800 13.650,0.800 14.200 C 0.800 14.750,0.620 15.200,0.400 15.200 C 0.134 15.200,0.000 77.067,0.000 200.000 C 0.000 322.933,0.134 384.800,0.400 384.800 C 0.620 384.800,0.800 385.250,0.800 385.800 C 0.800 386.350,0.620 386.800,0.400 386.800 C 0.180 386.800,0.000 387.340,0.000 388.000 C 0.000 389.386,1.265 389.707,1.968 388.500 C 2.332 387.875,2.377 387.896,2.388 388.700 C 2.396 389.329,2.641 389.600,3.200 389.600 C 3.753 389.600,4.000 389.867,4.000 390.462 C 4.000 391.296,3.974 391.301,3.208 390.607 C 2.430 389.903,1.200 390.277,1.200 391.217 C 1.200 391.633,8.367 398.800,8.783 398.800 C 9.723 398.800,10.097 397.570,9.393 396.792 C 8.699 396.026,8.704 396.000,9.538 396.000 C 10.133 396.000,10.400 396.247,10.400 396.800 C 10.400 397.359,10.671 397.604,11.300 397.612 C 12.104 397.623,12.125 397.668,11.500 398.032 C 10.293 398.735,10.614 400.000,12.000 400.000 C 12.660 400.000,13.200 399.820,13.200 399.600 C 13.200 399.380,13.650 399.200,14.200 399.200 C 14.750 399.200,15.200 399.380,15.200 399.600 C 15.200 399.866,77.067 400.000,200.000 400.000 C 322.933 400.000,384.800 399.866,384.800 399.600 C 384.800 399.380,385.250 399.200,385.800 399.200 C 386.350 399.200,386.800 399.380,386.800 399.600 C 386.800 400.404,389.096 400.039,389.316 399.200 C 389.458 398.656,389.862 398.400,390.575 398.400 C 391.153 398.400,391.729 398.130,391.855 397.800 C 391.982 397.470,392.311 397.200,392.586 397.200 C 393.177 397.200,397.200 393.266,397.200 392.687 C 397.200 392.468,397.515 392.055,397.900 391.771 C 398.479 391.343,398.509 391.163,398.073 390.727 C 397.637 390.291,397.457 390.321,397.029 390.900 C 396.314 391.868,396.000 391.776,396.000 390.600 C 396.000 389.867,396.213 389.600,396.800 389.600 C 397.359 389.600,397.604 389.329,397.612 388.700 C 397.623 387.896,397.668 387.875,398.032 388.500 C 398.735 389.707,400.000 389.386,400.000 388.000 C 400.000 387.340,399.820 386.800,399.600 386.800 C 399.380 386.800,399.200 386.350,399.200 385.800 C 399.200 385.250,399.380 384.800,399.600 384.800 C 399.866 384.800,400.000 322.933,400.000 200.000 C 400.000 77.067,399.866 15.200,399.600 15.200 C 399.380 15.200,399.200 14.750,399.200 14.200 C 399.200 13.650,399.380 13.200,399.600 13.200 C 400.404 13.200,400.039 10.904,399.200 10.684 C 398.656 10.542,398.400 10.138,398.400 9.425 C 398.400 8.847,398.130 8.271,397.800 8.145 C 397.470 8.018,397.200 7.689,397.200 7.414 C 397.200 6.763,393.237 2.800,392.586 2.800 C 392.311 2.800,391.982 2.530,391.855 2.200 C 391.729 1.870,391.153 1.600,390.575 1.600 C 389.862 1.600,389.458 1.344,389.316 0.800 C 389.096 -0.039,386.800 -0.404,386.800 0.400 C 386.800 0.620,386.350 0.800,385.800 0.800 C 385.250 0.800,384.800 0.620,384.800 0.400 C 384.800 0.134,322.933 0.000,200.000 0.000 C 77.067 0.000,15.200 0.134,15.200 0.400 C 15.200 0.620,14.750 0.800,14.200 0.800 C 13.650 0.800,13.200 0.620,13.200 0.400 C 13.200 0.180,12.660 0.000,12.000 0.000 C 11.077 0.000,10.800 0.180,10.800 0.780 M391.600 3.600 C 391.600 3.820,391.150 4.000,390.600 4.000 C 390.050 4.000,389.600 3.820,389.600 3.600 C 389.600 3.380,390.050 3.200,390.600 3.200 C 391.150 3.200,391.600 3.380,391.600 3.600 M396.800 9.400 C 396.800 9.950,396.620 10.400,396.400 10.400 C 396.180 10.400,396.000 9.950,396.000 9.400 C 396.000 8.850,396.180 8.400,396.400 8.400 C 396.620 8.400,396.800 8.850,396.800 9.400 M375.507 14.400 C 375.894 15.019,376.481 15.214,378.103 15.260 C 379.257 15.293,379.718 15.394,379.129 15.484 C 376.874 15.829,376.782 18.000,379.022 18.000 C 379.587 18.000,380.042 18.303,380.194 18.780 C 380.330 19.208,380.792 19.670,381.220 19.806 C 381.782 19.985,382.000 20.417,382.000 21.351 C 382.000 24.568,383.904 24.692,384.422 21.508 L 384.700 19.800 384.755 22.000 C 384.826 24.810,385.151 26.000,385.847 26.000 C 386.317 26.000,386.400 52.120,386.400 200.000 C 386.400 347.880,386.317 374.000,385.847 374.000 C 385.152 374.000,384.827 375.187,384.753 378.000 C 384.703 379.897,384.661 380.007,384.447 378.800 C 384.096 376.811,382.266 376.719,382.076 378.681 C 381.995 379.514,381.688 380.045,381.197 380.201 C 380.781 380.333,380.330 380.792,380.194 381.220 C 380.015 381.782,379.583 382.000,378.649 382.000 C 375.432 382.000,375.308 383.904,378.492 384.422 C 380.138 384.690,380.111 384.702,377.762 384.750 C 375.874 384.789,375.161 384.980,374.600 385.600 C 373.455 386.865,26.545 386.865,25.400 385.600 C 24.839 384.980,24.126 384.789,22.238 384.750 C 19.889 384.702,19.862 384.690,21.508 384.422 C 24.692 383.904,24.568 382.000,21.351 382.000 C 20.417 382.000,19.985 381.782,19.806 381.220 C 19.670 380.792,19.219 380.333,18.803 380.201 C 18.312 380.045,18.005 379.514,17.924 378.681 C 17.734 376.719,15.904 376.811,15.553 378.800 C 15.356 379.911,15.294 379.685,15.253 377.700 C 15.212 375.781,15.014 375.014,14.400 374.400 C 13.602 373.602,13.600 373.067,13.600 200.000 C 13.600 26.933,13.602 26.398,14.400 25.600 C 15.014 24.986,15.212 24.219,15.253 22.300 C 15.294 20.315,15.356 20.089,15.553 21.200 C 15.904 23.189,17.734 23.281,17.924 21.319 C 18.005 20.486,18.312 19.955,18.803 19.799 C 19.219 19.667,19.670 19.208,19.806 18.780 C 19.958 18.303,20.413 18.000,20.978 18.000 C 23.218 18.000,23.126 15.829,20.871 15.484 C 20.282 15.394,20.743 15.293,21.897 15.260 C 23.519 15.214,24.106 15.019,24.493 14.400 C 25.283 13.135,374.717 13.135,375.507 14.400 M39.326 188.763 C 39.216 189.183,38.783 189.616,38.363 189.726 C 37.176 190.036,37.176 209.964,38.363 210.274 C 38.783 210.384,39.216 210.817,39.326 211.237 C 39.640 212.438,360.360 212.438,360.674 211.237 C 360.784 210.817,361.217 210.384,361.637 210.274 C 362.824 209.964,362.824 190.036,361.637 189.726 C 361.217 189.616,360.784 189.183,360.674 188.763 C 360.360 187.562,39.640 187.562,39.326 188.763 M40.000 278.600 C 38.418 280.507,28.927 280.400,200.000 280.400 C 371.073 280.400,361.582 280.507,360.000 278.600 C 359.242 277.686,40.758 277.686,40.000 278.600 M38.400 281.600 C 37.427 282.573,37.136 301.776,38.080 302.720 C 38.780 303.420,361.220 303.420,361.920 302.720 C 362.864 301.776,362.573 282.573,361.600 281.600 C 360.335 280.335,39.665 280.335,38.400 281.600 M391.600 396.400 C 391.600 396.620,391.150 396.800,390.600 396.800 C 390.050 396.800,389.600 396.620,389.600 396.400 C 389.600 396.180,390.050 396.000,390.600 396.000 C 391.150 396.000,391.600 396.180,391.600 396.400 " stroke="none" fill="#043a94" fill-rule="evenodd"></path><path id="path1" d="M38.080 97.280 C 37.136 98.224,37.427 117.427,38.400 118.400 C 39.197 119.197,39.733 119.200,200.000 119.200 C 360.267 119.200,360.803 119.197,361.600 118.400 C 362.573 117.427,362.864 98.224,361.920 97.280 C 361.220 96.580,38.780 96.580,38.080 97.280 M40.000 120.200 C 38.418 122.107,28.927 122.000,200.000 122.000 C 371.073 122.000,361.582 122.107,360.000 120.200 C 359.242 119.286,40.758 119.286,40.000 120.200 " stroke="none" fill="#fc9404" fill-rule="evenodd"></path><path id="path2" d="" stroke="none" fill="#406498" fill-rule="evenodd"></path><path id="path3" d="" stroke="none" fill="#406498" fill-rule="evenodd"></path><path id="path4" d="" stroke="none" fill="#406498" fill-rule="evenodd"></path></g></svg>