<?xml version="1.0" standalone="no"?>
<!DOCTYPE svg PUBLIC "-//W3C//DTD SVG 20010904//EN"
 "http://www.w3.org/TR/2001/REC-SVG-20010904/DTD/svg10.dtd">
<svg version="1.0" xmlns="http://www.w3.org/2000/svg"
 width="250.000000pt" height="250.000000pt" viewBox="0 0 250.000000 250.000000"
 preserveAspectRatio="xMidYMid meet">

<g transform="translate(0.000000,250.000000) scale(0.100000,-0.100000)"
fill="#000000" stroke="none">
<path d="M90 2478 c-33 -17 -51 -35 -67 -68 l-23 -44 0 -1116 0 -1116 23 -44
c16 -33 34 -51 67 -68 l44 -22 1116 0 1116 0 44 22 c33 17 51 35 68 68 l22 44
0 1116 0 1116 -22 44 c-17 33 -35 51 -68 68 l-44 22 -1116 0 -1116 0 -44 -22z
m2305 -83 l25 -24 0 -1121 0 -1121 -25 -24 -24 -25 -1121 0 -1121 0 -24 25
-25 24 0 1121 0 1121 25 24 24 25 1121 0 1121 0 24 -25z"/>
<path d="M250 1250 l0 -60 1000 0 1000 0 0 60 0 60 -1000 0 -1000 0 0 -60z"/>
<path d="M250 670 l0 -60 1000 0 1000 0 0 60 0 60 -1000 0 -1000 0 0 -60z"/>
</g>
</svg>
